# xmcd
#
# Track frame offsets:
#	182
#	14387
#	30027
#	46525
#	63392
#	81582
#	96382
#	112707
#	125097
#	146365
#	162505
#	180225
#	196037
#	210767
#	223130
#	236730
#	252157
#	268595
#
# Disc length: 3792
#
# Revision: 3
# Processed by: cddbd v1.5.1PL0 Copyright (c) Steve Scherf et al.
# Submitted via: CDex 1.30Release
# Normalized: r1:TDELIM( - ),TSWAP
#
DISCID=ea0ece12
DTITLE=Various Artist - Country Pleasure Disc One
DYEAR=1900
DGENRE=Country
TTITLE0=Exile - Woke Up In Love
TTITLE1=The Judds - Why Not Me
TTITLE2=Alabama - Feels So Right
TTITLE3=Ronnie Milsap - Smokey Mountain Rain
TTITLE4=Trio (Dolly Parton, Emmylou Harris, Linda Ronstadt) - Those Memories Of You
TTITLE5=T G Sheppard - Only One You
TTITLE6=Don Williams - That's The Thing About Love
TTITLE7=Crystal Gayle - Baby What About You
TTITLE8=Gary Morris - The Wind Beneath My Wings
TTITLE9=George Strait - Baby Blue
TTITLE10=Eddie Rabbitt and Crystal Gayle - You And I
TTITLE11=The Nitty Gritty Dirt Band - I Love Only You
TTITLE12=The Forester Sisters - I Fell In Love Again Last Night
TTITLE13=Johnny Lee - One In A Million
TTITLE14=Donna Fargo - Somebody Special
TTITLE15=Frizzell and West - You're The Reason God Made Oklahoma
TTITLE16=Emmylou Harris - Save The Last Dance For Me
TTITLE17=Willie Nelson - Always On My Mind
EXTD=ID3G:   2
EXTT0=
EXTT1=
EXTT2=
EXTT3=
EXTT4=
EXTT5=
EXTT6=
EXTT7=
EXTT8=
EXTT9=
EXTT10=
EXTT11=
EXTT12=
EXTT13=
EXTT14=
EXTT15=
EXTT16=
EXTT17=
PLAYORDER=
